<svg width="89" height="74" viewBox="0 0 89 74" fill="none" xmlns="http://www.w3.org/2000/svg">
<g clip-path="url(#clip0_205_166)">
<path d="M61.5571 52.3721C63.1176 50.0974 64.2025 46.9141 61.8188 44.8305C59.4351 42.7469 55.7731 44.8848 54.5859 47.2283C53.5929 49.4932 52.8563 51.847 52.388 54.252C52.1923 55.034 52.0243 55.8343 51.9037 56.6272C51.7831 57.4202 51.3277 58.9535 51.7059 59.8905C52.1789 61.0832 55.7018 60.475 56.7851 60.3988C58.928 60.25 61.0685 59.9801 63.1814 59.6918C65.2943 59.4036 67.3306 58.9335 69.3787 58.5291C72.6549 57.8778 76.2806 57.1637 79.1257 55.3898C79.7895 55.0522 80.3375 54.5495 80.7076 53.9387C81.0778 53.328 81.2551 52.6337 81.2196 51.9346C81.1395 51.2489 80.8924 50.5888 80.4966 50.0038C80.1009 49.4189 79.5669 48.9243 78.9347 48.5571C77.4834 47.7262 75.6521 47.8992 74.0452 48.1547C72.0381 48.5116 70.0646 49.0147 68.1435 49.6593C65.894 50.4472 63.695 51.353 61.5571 52.3721Z" fill="#361041"/>
<path d="M53.6224 58.7273C54.324 59.6192 80.7005 55.7694 79.3348 51.4313C77.9692 47.0932 60.3601 55.1763 59.5358 54.5509C58.7114 53.9254 63.7241 46.8299 59.8249 45.8614C55.9257 44.8928 52.9017 57.8113 53.6224 58.7273Z" fill="#FFA95C"/>
</g>
<g clip-path="url(#clip1_205_166)">
<path d="M24.6678 43.9839C22.4295 42.2583 19.1536 40.8494 16.6056 42.76C14.0576 44.6705 15.8748 48.3026 18.2357 49.6955C20.5376 50.9004 22.9684 51.882 25.4892 52.6247C26.3031 52.9059 27.1403 53.1643 27.9759 53.3782C28.8114 53.5921 30.398 54.2092 31.4533 53.9852C32.7955 53.7078 32.6024 50.4028 32.662 49.401C32.782 47.4195 32.7716 45.4244 32.7379 43.4522C32.7043 41.4799 32.4654 39.5541 32.2986 37.6261C32.0269 34.5413 31.7337 31.1284 30.2006 28.2918C29.9248 27.64 29.4566 27.0726 28.8493 26.6539C28.2419 26.2353 27.5197 25.9823 26.7646 25.9236C26.0179 25.9074 25.277 26.0476 24.5974 26.3335C23.9177 26.6195 23.3171 27.0439 22.8403 27.5748C21.7589 28.7952 21.7056 30.4946 21.7702 31.9992C21.8913 33.8836 22.1739 35.7561 22.6151 37.5993C23.1674 39.7618 23.8527 41.8935 24.6678 43.9839Z" fill="#361041"/>
<path d="M30.4548 52.0787C31.5039 51.5526 30.8138 26.8994 25.9783 27.5836C21.1428 28.2678 27.522 45.4459 26.743 46.1191C25.964 46.7923 19.0008 41.2764 17.4521 44.7202C15.9033 48.1639 29.3773 52.6189 30.4548 52.0787Z" fill="#FFA95C"/>
</g>
<path d="M51.2636 22.4921C51.2054 19.7999 50.2076 16.5924 46.9746 16.0699C43.7416 15.5474 41.9656 19.1968 42.3762 21.7561C42.9018 24.151 43.6943 26.4892 44.7412 28.7334C45.0453 29.4853 45.3835 30.2382 45.7568 30.9609C46.1302 31.6837 46.6667 33.1944 47.5422 33.783C48.6494 34.5364 51.2236 32.2336 52.0814 31.6178C53.7794 30.4015 55.403 29.0853 56.9927 27.768C58.5823 26.4506 59.9994 25.0207 61.4656 23.6395C63.8083 21.4264 66.405 18.9829 67.7173 16.0535C68.069 15.4335 68.2256 14.735 68.1692 14.0371C68.1129 13.3391 67.8458 12.6697 67.3984 12.1049C66.9218 11.5739 66.3212 11.1494 65.6416 10.8633C64.962 10.5773 64.2211 10.437 63.4745 10.4531C61.7677 10.4999 60.3439 11.5777 59.1568 12.6098C57.6963 13.9305 56.3514 15.3559 55.1346 16.8727C53.7296 18.6764 52.4372 20.5525 51.2636 22.4921Z" fill="#361041"/>
<path d="M48.4451 31.8361C49.5633 32.2222 69.2575 15.5672 65.526 12.6459C61.7945 9.72448 51.9414 25.4406 50.8802 25.3392C49.819 25.2379 49.7584 16.7659 45.928 17.9458C42.0977 19.1257 47.2967 31.4396 48.4451 31.8361Z" fill="#FFA95C"/>
<defs>
<clipPath id="clip0_205_166">
<rect width="32.716" height="33.5288" fill="white" transform="matrix(0.618307 0.785936 -0.830396 0.557173 68.1832 29.4497)"/>
</clipPath>
<clipPath id="clip1_205_166">
<rect width="33.8335" height="32.4007" fill="white" transform="matrix(0.893916 -0.448234 0.50682 0.862052 0.924194 34.925)"/>
</clipPath>
</defs>
</svg>
