<svg width="424" height="445" viewBox="0 0 424 445" fill="none" xmlns="http://www.w3.org/2000/svg">
<g clip-path="url(#clip0_118_295)">
<path d="M200.548 93.3206C209.74 91.2624 219.023 97.8078 221.29 107.93C225.394 126.257 211.095 140.42 198.576 162.477C177.854 147.864 158.9 141.147 154.796 122.819C152.529 112.697 158.135 102.817 167.307 100.764C175.619 98.9025 180.801 102.554 187.003 110.795C189.107 100.694 192.237 95.1817 200.548 93.3206Z" fill="#EF3E5C"/>
<path d="M166.234 125.409C163.967 115.287 169.573 105.407 178.745 103.354C179.092 103.276 179.424 103.223 179.759 103.164C176.136 100.525 172.284 99.6492 167.307 100.764C158.135 102.817 152.529 112.697 154.796 122.818C158.9 141.146 177.853 147.863 198.576 162.477C199.275 161.244 199.981 160.04 200.688 158.855C183.848 148.132 169.711 140.937 166.234 125.409Z" fill="#E42A53"/>
<path d="M221.829 263.29L268.223 317.533L330.504 283.858L340.641 329.131L245.818 370.425L221.829 263.29Z" fill="#924B35"/>
<path d="M232.125 275.328L221.829 263.29L245.818 370.425L252.743 367.408L232.125 275.328Z" fill="#723529"/>
<path d="M221.829 263.29L245.818 370.425L141.172 373.795L131.035 328.522L201.729 332.422L221.829 263.29Z" fill="#924B35"/>
<path d="M136.157 335.753L206.851 339.653L224.972 277.327L221.829 263.29L201.729 332.422L131.035 328.522L141.172 373.795L144.65 373.683L136.157 335.753Z" fill="#7F3F2E"/>
<path d="M165.273 169.607L212.009 219.433L117.418 263.611L78.9845 209.442L165.273 169.607Z" fill="#FFC592"/>
<path d="M90.3696 213.36L171.278 176.009L165.273 169.607L78.9845 209.442L117.418 263.611L123.882 260.592L90.3696 213.36Z" fill="#EFA873"/>
<path d="M326.803 153.952L316.347 219.069L212.009 219.433L231.767 154.718L326.803 153.952Z" fill="#FFC592"/>
<path d="M236.832 161.697L325.675 160.982L326.803 153.952L231.767 154.718L212.009 219.433L219.213 219.408L236.832 161.697Z" fill="#EFA873"/>
<path d="M268.224 317.533L221.829 263.29L316.347 219.069L353.15 271.617L330.504 283.858L268.224 317.533Z" fill="#FFC592"/>
<path d="M232.502 266.372L320.607 225.151L316.347 219.069L221.829 263.29L268.224 317.533L273.719 314.562L232.502 266.372Z" fill="#EFA873"/>
<path d="M221.829 263.29L201.729 332.422L131.034 328.522L105.331 327.107L117.418 263.611L221.829 263.29Z" fill="#FFC592"/>
<path d="M122.484 270.591L219.793 270.291L221.829 263.29L117.418 263.611L105.331 327.107L111.659 327.455L122.484 270.591Z" fill="#EFA873"/>
<path d="M316.347 219.069L221.829 263.29L117.418 263.611L212.009 219.433L316.347 219.069Z" fill="#E5A070"/>
<path d="M215.746 225.956L302.273 225.653L316.347 219.069L212.009 219.433L117.418 263.611L135.237 263.556L215.746 225.956Z" fill="#D89364"/>
<path d="M247.997 113.821C246.154 114.233 244.301 112.958 243.856 110.974L233.648 65.3846C233.204 63.4001 234.337 61.4566 236.179 61.0441C238.022 60.6315 239.875 61.9065 240.319 63.8909L250.527 109.48C250.972 111.465 249.839 113.408 247.997 113.821Z" fill="#EFA873"/>
<path d="M276.552 127.941C274.71 128.354 272.857 127.079 272.412 125.095L260.746 72.9935C260.302 71.0091 261.434 69.0655 263.277 68.653C265.119 68.2404 266.972 69.5154 267.417 71.4998L279.083 123.601C279.527 125.586 278.395 127.529 276.552 127.941Z" fill="#EFA873"/>
<path d="M291.979 83.4579C290.136 83.8705 288.283 82.5955 287.839 80.6111L282.005 54.5569C281.561 52.5725 282.693 50.629 284.536 50.2164C286.378 49.8039 288.231 51.0789 288.676 53.0633L294.509 79.1174C294.954 81.1018 293.821 83.0454 291.979 83.4579Z" fill="#EFA873"/>
<path d="M133.153 139.536C131.311 139.948 129.457 138.673 129.013 136.689L118.805 91.0996C118.36 89.1152 119.494 87.1715 121.335 86.7591C123.177 86.3467 125.031 87.6215 125.475 89.6059L135.683 135.195C136.128 137.18 134.995 139.123 133.153 139.536Z" fill="#EFA873"/>
<path d="M113.345 164.486C111.503 164.898 109.649 163.623 109.205 161.639L97.539 109.538C97.0947 107.553 98.228 105.609 100.07 105.197C101.912 104.785 103.765 106.06 104.21 108.044L115.876 160.145C116.32 162.13 115.187 164.073 113.345 164.486Z" fill="#EFA873"/>
<path d="M80.4221 130.828C78.5803 131.241 76.7264 129.966 76.2821 127.981L70.4482 101.927C70.0039 99.9428 71.1371 97.9991 72.9789 97.5867C74.8207 97.1743 76.6746 98.4491 77.119 100.434L82.9528 126.488C83.3972 128.472 82.2639 130.416 80.4221 130.828Z" fill="#EFA873"/>
<path d="M254.103 295.56C252.608 295.894 251.004 295.109 250.26 293.561C249.381 291.735 250.031 289.54 251.711 288.66L319.874 252.883C321.554 252.002 323.628 252.766 324.504 254.592C325.383 256.418 324.733 258.613 323.053 259.493L254.89 295.27C254.635 295.404 254.37 295.5 254.103 295.56Z" fill="#EFA873"/>
</g>
<defs>
<clipPath id="clip0_118_295">
<rect y="76.4759" width="350" height="377.104" rx="20" transform="rotate(-12.6211 0 76.4759)" fill="white"/>
</clipPath>
</defs>
</svg>
