<svg viewBox="0 0 100 100" xml:space="preserve" xmlns="http://www.w3.org/2000/svg"><path d="M35.3 26c-.6-.5-1.6-.5-2.1.1L21.7 39.4c-.5.6-.5 1.6.1 2.1.3.2.6.4 1 .4s.8-.2 1.1-.5l11.5-13.3c.6-.6.5-1.6-.1-2.1zM41.3 33.2c.5-.6.5-1.6-.1-2.1s-1.6-.5-2.1.1L27.6 44.5c-.5.6-.5 1.6.1 2.1.3.2.6.4 1 .4s.8-.2 1.1-.5l11.5-13.3zM42.8 43.4c.5-.6.5-1.6-.1-2.1s-1.6-.5-2.1.1l-7 8.2c-.5.6-.5 1.6.1 2.1.3.2.6.4 1 .4s.8-.2 1.1-.5l7-8.2z" fill="#f28705" class="fill-000000"></path><path d="m81.6 26.6-5.8-5.2c-.3-.3-.7-.4-1.1-.4-.4 0-.8.2-1 .5L56.4 40.8l-.1-5.1c0-1.5-.7-3-1.9-4l-19.5-17c-.3-.3-.7-.4-1.1-.4-.4 0-.8.2-1 .5L10.1 41c-.5.6-.5 1.6.2 2.1L35.4 65l-4.9 10.5-2.9 3.2c-.6.6-.5 1.6.1 2.1.3.3.7.4 1 .4.4 0 .8-.2 1.1-.5l2.9-3.1 11.1-6.5.3-.3 31.7-35.4.9.8-8.7 9.6c-.5.6-.5 1.6.1 2.1.3.3.6.4 1 .4s.8-.2 1.1-.5l9.6-10.7c.2-.1.2-.1.2-.2.1-.1.1-.2.2-.3V36c0-.1-.1-.2-.1-.3 0-.1 0-.2-.1-.2l-.3-.3s0-.1-.1-.1l-2-1.8 4-4.4c.7-.8.6-1.7 0-2.3zM52.5 34c.5.5.8 1.1.8 1.8l.1 7.1c0 .6-.2 1.2-.6 1.7l-.1.2-3.1-2.8c-.7-.6-1.1-1.5-1.2-2.4-.1-.9.2-1.8.9-2.5l2.9-3.4.3.3zm-39.2 7.8L34.1 18 50 31.8l-3 3.3c-1.1 1.3-1.7 3-1.6 4.7.1 1.7.9 3.3 2.2 4.4l3.1 2.7-13.6 15.6-23.8-20.7zm21.8 30.8 2.6-5.6 2.8 2.5-5.4 3.1zm7.8-5-3.5-3.1L70 30.2l2.3 2 1.3 1.2-30.7 34.2zm32.6-36.5L72 28l3-3.3 3.5 3.2-3 3.2zM65.4 70.4c1.6 1.6 3.7 2.5 6 2.5s4.4-.9 6-2.5 2.5-3.7 2.5-6-.9-4.4-2.5-6-3.7-2.5-6-2.5-4.4.9-6 2.5c-1.6 1.6-2.5 3.7-2.5 6 0 2.2.9 4.4 2.5 6zm9.9-9.9c1 1 1.6 2.4 1.6 3.9s-.6 2.8-1.6 3.9c-1 1-2.4 1.6-3.9 1.6s-2.9-.6-3.9-1.6-1.6-2.4-1.6-3.9.6-2.9 1.6-3.9 2.4-1.6 3.9-1.6 2.9.6 3.9 1.6z" fill="#f28705" class="fill-000000"></path><path d="M91.3 79.2c-1.7-1.7-3.9-2.6-6.2-2.6-2.3 0-4.5.9-6.2 2.6-2.2 2.2-5.9 2.2-8.1 0l-.8-.8c.5.1 1 .1 1.5.1 3.7 0 7.2-1.4 9.8-4.1 5.4-5.4 5.4-14.3 0-19.7-2.6-2.6-6.1-4.1-9.8-4.1s-7.2 1.4-9.8 4.1c-5.4 5.4-5.4 14.3 0 19.7.4.4 1.8 1.9 2.1 2.2l4.9 4.8c1.7 1.7 3.9 2.6 6.2 2.6s4.5-.9 6.2-2.6c1.1-1.1 2.5-1.7 4.1-1.7 1.5 0 3 .6 4.1 1.7.6.6 1.5.6 2.1 0s.5-1.6-.1-2.2zm-26.6-6.1s-1-1-1.1-1c-4.1-4.3-4-11 .2-15.2 2.1-2.1 4.8-3.2 7.7-3.2s5.7 1.1 7.7 3.2c4.3 4.3 4.3 11.2 0 15.4-2.1 2.1-4.8 3.2-7.7 3.2-2.6-.1-4.9-.9-6.8-2.4z" fill="#f28705" class="fill-000000"></path></svg>